<?xml version="1.0" encoding="UTF-8"?>
<svg id="Layer_1" data-name="Layer 1" xmlns="http://www.w3.org/2000/svg" viewBox="0 0 250 250">
  <defs>
    <style>
      .cls-1, .cls-2 {
        stroke-width: 0px;
      }

      .cls-2 {
        fill: #fff;
      }
    </style>
  </defs>
  <path class="cls-1" d="m209.06,32.9C143.47-25.44,35.35.08,6.89,83.93c-28.33,83.48,34.34,165.9,121.22,164.76,27.59-.37,47.85-7.26,70.18-23.11,64.1-45.49,69.67-140.32,10.78-192.69Zm-60.92,207.88C79.6,254.01,14.58,206.42,7.42,137.08-3.64,30.07,123.23-34.5,203.9,36.6c72.94,64.29,39.29,185.84-55.76,204.19Z"/>
  <path class="cls-1" d="m57,90.13l-9.59-6.87.07-.97c2.41-4.1,7.27-9.08,7.78-13.85.63-5.89-4.71-11.36-10.71-9.74-7.16,1.92-12.31,13.43-17.2,18.71l-.21,1.48c4.38,3.4,8.88,6.72,13.46,9.87.65.45,1.45.61,2.11,1.06,2.66,1.8,6.71,5.46,9.32,6.69.34.16.61.22.97.08l4.12-5.76-.12-.71Zm-14.39-10.29l-6.16-4.42c-.19-.77.02-1.32.38-1.99.98-1.77,3.95-5.91,5.3-7.41,2.87-3.18,8.26,2.95,7.44,4.09l-6.96,9.73Z"/>
  <path class="cls-1" d="m106.65,193.72c-1.43-.71-6.89-2.93-8.11-2.32l-22.57,24.03c-.08.97,3.96,2.07,4.89,2.25,1.87-.79,3.21-4.54,5.45-4.19,3.32,1.97,7.53,2.71,10.87,4.39.41.21.97.48,1.18.9h.02c.67,1.37-1.06,5.16.52,6.43,1.81,1.45,6.29,1.56,8.44,2.98l.96-.22.07-32.66c-.21-.78-1.02-1.23-1.71-1.59Zm-8.36,18.82c-2.85-1.44-6.21-1.43-8.83-3.34l9.29-9.81c.62.25.14,12.87-.46,13.15Z"/>
  <path class="cls-1" d="m207.06,168.48c4.18-.49,8.1,3.24,8.49,7.29.75,8.03-7.07,18.68-14.63,21.2-4.87,1.63-6.76,1.6-5.49-4.25,2.01-1.31,4.63-.68,6.91-1.63,3.73-1.57,10.5-9.53,5.92-13.08-3.77-2.92-8.63,3.11-11.23,5.23-3.14,2.57-9.32,6.75-13.37,4.43-9.02-5.18,0-19.53,6.21-23.16,1.08-.63,5.57-2.64,6.46-1.47.49,1.2.19,3.59-.4,4.66-.68,1.23-5.92,2.15-7.61,3.57-2.9,2.43-5.05,7.96.3,8.15,5.26.19,11.11-10.08,18.43-10.93h0Z"/>
  <path class="cls-1" d="m68.21,171.23c-1.49-2.6-6.35-7.35-8.67-9.76-.88-.93-5.9-6.16-6.57-6l-21.71,22.23c-.22.38-.04.63.18.96.47.69,4.16,4.29,4.77,4.51.16.05.85.06.96,0l8.09-8.11.96.23c4.56,3.94,10.3,11.92,17.16,9.93,6.59-1.9,8.03-8.5,4.85-14Zm-10.57,7.87l-8.23-8.21,5.35-5.37c.79-.06,1.31.22,1.91.7,1.58,1.25,5.2,4.87,6.45,6.44,2.49,3.12-4,7.92-5.47,6.45Z"/>
  <path class="cls-1" d="m148.21,194.11l11.37,22.75c.03.05.73.3.91.29,1.33-.04,6.61-3.22,8.37-4,1.57-.7,3.44-1.03,4.96-2.08,1.69-.56,3.72,3.44,2.25,4.5l-19.59,9.81-1.5-.02-13.69-26.41c-.66-2.56,4.99-4.22,6.91-4.86h0Z"/>
  <g>
    <path class="cls-1" d="m224.21,160.61c-.75-3.11-.65-3.73-.65-3.73-.32-5.28-1.89-10.3-3-15.41-.97-4.49-.92-8.55-3.38-12.77-5.35-9.18-13.6-8.74-21.88-14.04-5.87-3.75-20.34-5.6-25.8-6.85-.31-.38-.53-.68-.57-.82-.11-.3.08-2.56.24-3.53.39-2.47,1.08-4.89,1.34-7.31-1.03.16-1.55,1.13-2.38,1.6-3.98,2.21-6.46.64-7.47,6.6l-.05.72c.07.28-.21,1.18-.21,1.2s.05.5.1.72c.05.25.04.5-.02.72,0,0-21.79-.87-24.95-1.24-2.99-.35-3.77-.19-6.71-.19-5.12,0-10.21-.74-15.32-.85-8.01-.15-15.07.72-23.16-.64-3.25-.55-6.12-1.73-9.54-1.66-2.96.07-6.11.86-9.07.93-9.36.25-18.09-2.02-27.8.79-12.38,3.59-13.47,26.47-8.23,35.68,1.35,2.37,7.01,8.76,9.75,8.8,3.17-.81,6.68-1.43,9.79-2.33,3.95-1.14,8.12-3.19,12.09-3.94,2.71-.51,6.02-.21,8.46-1.46.83-.42,1.34-1.37,2.32-1.46.98.76-3.08,2.4-3.43,2.52-6.44,2.12-15.03,2.13-21.47,5.83l-4.15,1.01c3.21-.24,6.43-.46,9.64-.64,13.17-.77,26.17-2.94,39.23-3.37.47-.02.81.12,1.24.24-.02-.49.04-.69-.34-1.04-1.18-1.1-4.41-1.92-3.25-4.12.29-.53,2.71-4.17,3.05-4.55.21-.23.55-.29.72-.55l.38.64c1.36-1.03,1.11.02,1.88.48,3.75,2.26,8.22,4.79,11.68,7.71.89.76,1.4,2.37,2.77,2.49,3.2.27,9.03-1.05,12.59-1.3,8.41-.58,15.3-1.12,23.74-2.45,10.1-1.58,17.7-1.76,27.63-2.48,1.21-.09,2.36.29,2.36.29,0,0,2.22-.54,5.22-.58,2.79-.04,18.64.61,23.4,3.16-.03,1.04-1.07,6.12-1.45,6.66-.19.27-1.68.13-1.2,1.61-1.25-.68-1.52.33-2.39.77-2.23,1.12-4.6,1.96-6.72,3.17.74.74,1.83.6,2.69,1.01,4.12,1.95,4.87,4.35,10.29,1.71l1.57,4.97c4.26.02,7.49,2.62,10.93,4.72-.44-2.54.11-4.88-.51-7.45Zm-139.87-38.96l1.03.52-1.16,2.29-1.02-.52,1.15-2.29Zm-1.81,10.32c-1.71.87-3.85.67-5.46-1.43-2.93-3.82-.32-7.04,2.67-7.79,1.61-.4-4.82,2.21-3.18,5.95.9,2.04,1.8,3.73,6.52,2.78.12-.02-.08.25-.54.49Zm-4.65-5.5c1.22-3.61,5.65-2.73,6.56-.29-1.28-1.3-4.48-2.17-5.65.73-.91,2.27,3.07,3.92,5.21,1.97-2.22,3.46-7.13.55-6.12-2.41Zm7.53-.59l-.76-.86,1.92-1.71.76.86-1.92,1.71Z"/>
    <path class="cls-1" d="m102.76,138.88c1.03.54,3.28,1.81,4.28,2.44,1.38.87,6.82,4.59,7.65,5.53,2.01,2.28,2.4,7.65-1.37,8.26l-.27-.73-1.02-.67-1.21-.63c-2.22.06-3.9-2.06-5.38-3.52l-3.61-2.58s-4.9-4.97-5.13-5.58c-.41-3.6,3.54-3.86,6.04-2.53h0Z"/>
    <path class="cls-1" d="m98.08,146.71c1.39,1.08,4.27,5.01,5.61,5.57.4.17.39-.2.73-.23.2,1.43-1.43,1.47-2.52,1.19-2.47-.63-7.03-4.79-9.74-5.82-.17-1.11,5.07-.86,5.91-.71h0Z"/>
    <path class="cls-2" d="m84.09,128.75s-.05.08-.09.12c-2.14,1.95-6.12.29-5.21-1.97,1.17-2.9,4.37-2.04,5.65-.73.28.74.22,1.62-.35,2.58Z"/>
    <path class="cls-1" d="m84.92,127.52c-.22.57-.54,1.03-.92,1.36-2.14,1.95-6.12.29-5.21-1.97,1.17-2.9,4.37-2.04,5.65-.73.44.45.64.94.48,1.35Z"/>
  </g>
  <path class="cls-1" d="m145.82,45.43c-.35-2.56,4.66-2.67,5.53-1.37.64.96.78,4.16,1.82,5.92,2.31,3.94,11.69,9.61,13.7,2.73.96-3.3-5-7.34-6.96-9.27-4.03-3.98-9.6-11-2.81-15.62,6.02-4.1,17.52,1.97,20.97,7.2.64.98,2.38,4.19,1.58,5.18s-3.95.69-4.9.24c-1.29-.61-2.34-6.85-6.83-8.75-2.64-1.11-5.44.15-5.1,3.37.62,5.76,14.32,10.95,12.66,19.12-1.97,9.65-13.18,7.21-19.32,3.98-4.04-2.12-7.62-5.52-9.34-9.82-.2-.49-.95-2.57-1-2.93h0Z"/>
  <path class="cls-1" d="m227.14,98.53c-.91.71-3.23,2.17-4.36,1.86-1.15-.48-1.2-1.92-1.74-2.91-.21-.39-.69-.71-.74-.81l-3.03-7.23-25.53,10.33-3.03-7.23,24.86-11.93-3.5-8.36c-.14-.33-.52-2.43-.15-2.72,1.38-.49,3.05-1.87,4.48-1.36l12.74,30.38h0Z"/>
  <path class="cls-1" d="m111.26,38.43c-.41-1.52-2.68-6.12-3.75-7.19-6.22-6.24-19.04-6.28-25.62-.63-1.61,1.38-4.31,5.12-4.65,7.22-1.18,7.28.36,14.17,6.51,18.6,4.02,2.88,14.22,2.9,18.67,1.09,6.73-2.74,10.72-12.09,8.85-19.09Zm-9.28,12.53c-1.23,1.24-5.15,2.74-6.85,2.79-6.69.24-12.27-5.6-11.34-12.47.52-3.87,4.7-8.48,8.55-9.02,3.99-.55,7.82.47,10.51,3.62,1.07,1.27,2.55,4.44,2.71,6.1.16,1.8-2.24,7.63-3.58,8.97Z"/>
</svg>