<?xml version="1.0" encoding="UTF-8"?>
<svg id="Layer_1" xmlns="http://www.w3.org/2000/svg" version="1.1" viewBox="0 0 24 24">
  <!-- Generator: Adobe Illustrator 29.6.1, SVG Export Plug-In . SVG Version: 2.1.1 Build 9)  -->
  <defs>
    <style>
      .st0 {
        stroke-width: 1.5px;
      }

      .st0, .st1 {
        fill: none;
        stroke: #0b1215;
        stroke-miterlimit: 10;
      }

      .st1 {
        stroke-width: 1.3px;
      }
    </style>
  </defs>
  <g id="Layer_5">
    <path class="st1" d="M13.22,19.96v-2.82c0-.09.06-.16.15-.19,5.69-1.62,6.36-6.31,6.44-7.33,0-.12-.08-.21-.2-.21h-2.11c-.1,0-.18.08-.19.18-.16,1.84-2.68,3.8-3.56,4.34-.13.08-.31-.03-.3-.19.16-4.07,2.95-4.56,3.69-4.62.1,0,.18-.09.18-.2v-2.14c0-.12-.1-.21-.22-.21-1.62.09-2.98.84-3.56,1.2-.13.08-.3-.01-.3-.17V3.56c0-.11-.09-.2-.2-.2h-2.08c-.11,0-.2.09-.2.2v4.06c0,.16-.17.26-.3.17-.58-.37-1.94-1.11-3.56-1.2-.12,0-.22.08-.22.2v2.01c0,.25.08.33.18.33.74.06,3.53.55,3.69,4.62,0,.16-.17.27-.3.19-.89-.54-3.41-2.49-3.56-4.34,0-.1-.08-.18-.19-.18h-2.12c-.12,0-.21.09-.2.21.08,1.02.75,5.7,6.44,7.33.08.02.15.1.15.19v2.82c0,.11.09.2.2.2h2.05c.11,0,.2-.09.2-.2h0Z"/>
  </g>
  <g id="Layer_6">
    <path class="st0" d="M12.22,22.12c-.15.04-.29.04-.44,0-1.45-.34-9.57-2.33-9.62-4.65-.08-3.11,0-14.03,0-15.61,0-.11.09-.19.2-.19h19.3c.11,0,.19.08.19.18.03,1.78,0,12.51,0,15.62,0,2.32-8.18,4.31-9.62,4.65h-.01Z"/>
  </g>
</svg>